<?xml version="1.0" encoding="UTF-8" standalone="no"?>
<svg
   xmlns:dc="http://purl.org/dc/elements/1.1/"
   xmlns:cc="http://creativecommons.org/ns#"
   xmlns:rdf="http://www.w3.org/1999/02/22-rdf-syntax-ns#"
   xmlns:svg="http://www.w3.org/2000/svg"
   xmlns="http://www.w3.org/2000/svg"
   xmlns:sodipodi="http://sodipodi.sourceforge.net/DTD/sodipodi-0.dtd"
   xmlns:inkscape="http://www.inkscape.org/namespaces/inkscape"
   version="1.1"
   id="svg2"
   width="219.68979"
   height="54.384823"
   sodipodi:docname="EsquireLogo2013.svg"
   inkscape:version="1.0.1 (3bc2e813f5, 2020-09-07)">
  <sodipodi:namedview
     pagecolor="#ffffff"
     bordercolor="#666666"
     borderopacity="1"
     objecttolerance="10"
     gridtolerance="10"
     guidetolerance="10"
     inkscape:pageopacity="0"
     inkscape:pageshadow="2"
     inkscape:window-width="747"
     inkscape:window-height="480"
     id="namedview10"
     showgrid="false"
     inkscape:zoom="2.2153169"
     inkscape:cx="109.8449"
     inkscape:cy="31.683793"
     inkscape:window-x="0"
     inkscape:window-y="27"
     inkscape:window-maximized="0"
     inkscape:current-layer="svg2" />
  <metadata
     id="metadata7">
    <rdf:RDF>
      <cc:Work
         rdf:about="">
        <dc:format>image/svg+xml</dc:format>
        <dc:type
           rdf:resource="http://purl.org/dc/dcmitype/StillImage" />
        <dc:title />
      </cc:Work>
    </rdf:RDF>
  </metadata>
  <defs
     id="defs5" />
  <path
     id="path14"
     style="fill:#ffffff;fill-opacity:1;fill-rule:evenodd;stroke:none"
     d="" />
  <path
     d="m 28.796931,0.24907303 c -2.186125,-0.385 -16.330625,-1.54250003 -23.7891249,8.35874997 -3.600087,4.50125 -1.02825,10.03 7.0727499,10.03 -7.5868749,2.82875 -13.3730379,7.972625 -11.8300629,14.0155 2.134813,8.36188 11.4443129,7.97275 18.7739379,7.20125 13.039,-1.37262 21.98825,-13.629875 24.045875,-15.172875 3.086,1.543 4.628875,4.371625 3.34325,6.171875 -3.472125,0.128375 -12.6015,0.89937 -12.21625,5.65775 0.38625,4.75725 14.7875,4.24313 22.76025,-1.02888 1.157625,0.38576 3.47162,1.54301 4.62938,2.44338 1.15724,0.89988 2.44287,0.12838 2.57124,-3.729 -1.15674,-1.15775 -4.3715,-2.315 -6.042995,-2.315 0.51425,-2.57175 1.414125,-5.657125 -5.786625,-10.929 -1.157625,-0.64375 -1.02875,-1.415 -0.128875,-2.0575 0.900375,-0.64375 -0.128375,-2.18625 -2.57175,-2.95875 -2.443375,-0.77 -7.715375,-0.385 -9.38675,1.54375 -0.7715,0.77125 -0.7715,3.4725 0.51425,4.3725 -1.28575,2.18525 -7.715375,11.572 -17.231,12.344 -3.47175,0.38575 -7.376,-0.123 -7.07175,-5.1435 0.25725,-4.24325 6.686,-7.97175 9.000875,-9.0005 1.414125,-0.64375 1.15725,-2.70125 -0.643,-3.215 -1.79975,-0.515 -6.0435,-0.77125 -6.30075,-4.115 -0.257375,-3.34375 3.98625,-5.78625 10.80125,-7.0725 2.057625,-0.2575 2.057625,-4.75749997 -0.514125,-5.40124997 z m 17.102,34.46187997 c -2.186,-0.38575 -7.84375,-0.38575 -7.84375,1.41462 0,1.80025 6.172375,1.414 7.84375,-1.41462"
     id="path16"
     style="fill:#231f20;fill-opacity:1;fill-rule:evenodd;stroke:none" />
  <path
     d="m 83.575176,22.495323 c -2.05712,-0.2575 -8.61525,-1.02875 -9.51562,5.271875 -0.89987,6.300755 4.24363,6.815375 6.30125,6.558005 2.05713,-0.25725 6.30037,-2.44338 6.30037,-10.029755 -0.12849,-3.857625 1.41451,-5.271375 4.75775,-5.400125 3.34375,-0.12875 4.88626,0.6425 4.88626,4.115 0,3.471625 0.12887,29.57425 0.12887,30.73138 -2.44337,0 -8.8725,0.25737 -11.44425,0.64312 0.25725,-6.17237 1.02875,-18.645 1.02875,-20.57425 -1.67188,2.44338 -4.88625,6.044 -10.93013,5.9155 -6.04349,-0.12887 -11.57275,-2.958 -11.18712,-10.930125 0.38575,-7.971875 8.48687,-13.501875 20.96,-11.700625 2.18562,0.385 2.44287,5.785 -1.28613,5.4"
     id="path18"
     style="fill:#231f20;fill-opacity:1;fill-rule:evenodd;stroke:none" />
  <path
     d="m 217.43481,34.582573 c -2.9575,-0.12888 -5.015,0.38525 -7.32875,0.7715 -2.315,0.38575 -5.91625,0.7715 -8.61625,0.12837 -2.7,-0.643 -3.47125,-3.34324 -2.7,-5.01462 0.77125,-1.671875 3.3425,-2.57225 4.88625,-3.086375 1.54375,-0.51425 1.54375,-2.571375 -0.12875,-2.957125 -1.67125,-0.38625 -3.98625,-1.02925 -3.98625,-2.44275 0,-1.415 2.0575,-3.34375 8.48625,-2.83 2.44375,0.2575 1.80125,-3.985 -0.9,-4.62875 -2.4425,-0.12875 -10.93,0.64375 -16.71625,3.6 -2.9575,1.54375 -3.47125,5.786875 4.3725,7.2015 -4.88625,0.38575 -8.23,4.628875 -8.10125,6.5575 0.0363,0.54888 -0.0613,1.5245 0.2675,2.59775 -1.26875,0.82125 -2.8325,1.08975 -4.575,1.00287 -2.5725,-0.12837 -6.43,-3.21487 -5.59375,-8.486745 0.74,-4.670375 2.0575,-4.115375 2.7,-4.371625 1.415,0 2.83,-0.77125 2.83,-2.57125 0,-1.80125 0.44875,-2.25125 -0.965,-2.25125 -1.415,0 -10.2225,1.28625 -16.78125,-0.1925 -0.12875,-1.92875 -3.3425,-4.63 -6.68625,-2.82875 -3.3425,1.8 -2.4425,5.915 1.415,6.94375 0.30125,0.08 0.60875,0.15625 0.91375,0.2325 -1.18125,4.86325 -3.89875,12.98288 -8.24375,13.78325 -2.4425,0.51413 -3.98625,-1.15725 -3.72875,-5.143625 0.2575,-3.98575 1.02875,-11.444625 1.02875,-11.444625 0.2575,-3.215 -11.445,-3.085 -11.31625,0.90125 v 12.6005 c 0,0.30087 0.0637,0.67825 0.18,1.09375 -2.96125,2.30475 -9.49625,2.83263 -9.0525,-2.37938 l 1.54375,-11.44487 c 0.385,-3.3425 -10.2875,-4.5 -10.545,0.13 l -0.12875,9.25725 c -0.0413,0.527375 -0.0588,1.167 -0.0175,1.86425 -0.85,1.5835 -2.455,3.0625 -4.4825,3.15088 -2.958,0.12849 -4.62937,-0.25725 -4.3725,-3.986255 0.25725,-3.7285 1.15775,-10.801125 1.15775,-10.801125 0.25675,-3.34375 -10.41562,-3.34375 -10.67287,-0.38625 -0.1285,2.44375 -0.771,11.444625 -0.89988,14.27325 -0.1285,2.82913 4.24363,6.30125 10.415,6.044 5.4425,-0.22712 7.38625,-1.75487 9.62,-4.75687 1.09,2.63774 3.56125,4.979 8.8975,4.75687 2.03,-0.11962 5.06125,0.53513 9.81125,-3.186 1.2675,1.71038 3.415,3.29925 6.6475,3.44325 5.78625,0.25738 10.15875,-0.25725 13.245,-6.30125 2.68,-5.25 3.5175,-7.3965 4.19625,-10.73575 2.635,0.50875 5.3525,0.834875 8.01875,0.834875 -3.08625,2.186125 -4.37125,3.985875 -4.115,7.714875 0.13,2.315 1.67125,8.27388 11.57375,8.35838 5.59375,0.04787 8.165,-1.14888 9.935,-2.47951 2.37625,1.72763 7.3125,2.96488 17.5825,2.09375 3.34375,-0.51462 8.3575,-0.38574 11.5725,-0.25725 2.18625,0.12888 2.315,-4.24324 -0.6425,-4.37162"
     id="path20"
     style="fill:#231f20;fill-opacity:1;fill-rule:evenodd;stroke:none" />
  <path
     d="m 143.88231,13.517823 c 3.21375,0 5.81875,-2.1975 5.81875,-4.91 0,-2.71125 -2.605,-4.91 -5.81875,-4.91 -3.21375,0 -5.81875,2.19875 -5.81875,4.91 0,2.7125 2.605,4.91 5.81875,4.91"
     id="path22"
     style="fill:#231f20;fill-opacity:1;fill-rule:evenodd;stroke:none" />
</svg>
