<svg viewBox="0 0 438 107" xmlns="http://www.w3.org/2000/svg">
  <g fill="#000" fill-rule="evenodd">
    <path d="M78.531 99.882c-.836 3.347-.951 3.684-1.799 3.684h-9.531v.655h21.587v-.655h-9.881c-.639 0-.532-.454.245-3.513l6.64-25.782h26.285l8.025 29.295h-10.678v.655h35.92v-.655h-11.167L104.389.258h-.181L78.531 99.882zM98.5 24.893l13.373 48.726H85.98L98.5 24.893zM387.912 52.677h8.217c7.28 0 18.016 3.135 18.016 15.873v23.067c0 9.439 5.209 15.383 14.398 15.383 9.657 0 9.508-9.752 9.508-16.787v-7.414h-.653v7.414c0 8.002-.949 14.951-5.66 14.951-4.175 0-5.073-2.589-5.073-13.446V68.55c0-10.72-8.689-14.649-22.108-16.204 16.713-1.988 23.006-12.661 23.006-24.463 0-17.457-8.061-24.795-28.821-24.795l-32.909-.007v.656h8.641c.624 0 .919.175.919.529v98.767c0 .356-.295.533-.919.533h-8.641v.655h30.263v-.655h-7.269c-.625 0-.915-.177-.915-.533V52.677zm0-48.934h8.87c13.663 0 17.527 10.392 17.527 24.14 0 12.872-3.864 24.139-17.527 24.139h-8.87V3.743zM167.68 103.05c-.107.235.014.516.519.516l23.579.006c7.259 0 16.629-10.736 16.629-45.331v-3.602h.656v49.586h-56.298l42.651-99.977c.104-.232-.018-.511-.522-.511l-25.034.006c-6.571 0-16.113 11.996-16.113 45.333v3.601h-.655V3.088h57.281L167.68 103.05M28.296 3.743c13.666 0 19.23 10.392 19.23 24.14 0 12.872-5.564 23.156-19.23 23.156h-6.218V3.743h6.218zM0 3.081v.656h8.642c.625 0 .917.175.917.529v98.767c0 .356-.292.533-.917.533H0v.655l32.225.004c20.756 0 31.83-8.646 31.83-26.098 0-12.086-6.545-24.387-27.205-26.837 17.55-1.641 23.605-12.664 23.605-23.407 0-15.711-9.437-24.795-30.194-24.795L0 3.081zm28.296 48.613c15.41 0 21.522 10.502 21.522 26.433 0 13.744-5.456 25.445-18.249 25.445l-8.574-.006c-.625 0-.917-.177-.917-.533V51.686l6.218.008zM227.136 99.882c-.84 3.347-.955 3.684-1.801 3.684h-9.531v.655h21.589v-.655h-9.884c-.635 0-.531-.454.25-3.513l6.637-25.782h26.285l8.027 29.295h-10.682v.655h35.923v-.655h-11.171L252.992.258h-.183l-25.673 99.624zm19.969-74.989l13.369 48.726h-25.893l12.524-48.726z"></path>
    <path d="M298.832 99.882c-.839 3.347-.95 3.684-1.797 3.684h-9.533v.655h21.588v-.655h-9.883c-.635 0-.53-.454.248-3.513l6.64-25.782h26.284l8.026 29.295h-10.681v.655h35.922v-.655h-11.167L324.693.258h-.183l-25.678 99.624zm19.972-74.989l13.371 48.726h-25.896l12.525-48.726zM275.733 13.549c0 .04.037.055.107.055h1.459v.233h-4.981v-.233h1.301c.073 0 .105-.015.105-.055V8.506h-4.757v5.043c0 .04.033.055.104.055h1.301v.233h-4.979v-.233h1.459c.071 0 .104-.015.104-.055V3.653c0-.036-.033-.053-.104-.053h-1.459v-.234h4.979V3.6h-1.301c-.071 0-.104.017-.104.053v4.622h4.757V3.653c0-.036-.032-.053-.105-.053h-1.301v-.234h4.981V3.6h-1.459c-.07 0-.107.017-.107.053v9.896M289.563 9.251c-.458 0-.765-.212-.765-.569 0-.323.194-.312.194-.549 0-.24-.154-.35-.401-.35-.255 0-.71.085-1.055 1.133v4.633c0 .04.032.055.104.055h.894v.233h-3.506v-.233h.891c.072 0 .104-.015.104-.055V7.83c0-.035-.032-.055-.104-.055h-.891v-.233h2.464l.044.045v.977c.263-.814.831-1.15 1.499-1.15.813 0 1.341.427 1.341 1.088 0 .417-.322.749-.813.749M302.713 13.964c1.141 0 2.059-.553 2.672-1.4l-.177-.142c-.573.811-1.341 1.313-2.495 1.313-.422 0-.762-.08-1.053-.338-.48-.431-.63-.936-.63-2.706 0-.131.001-.167.004-.287h4.485l.044-.041c0-1.195-.824-2.949-2.85-2.949-1.87 0-3.275 1.469-3.275 3.277 0 1.805 1.405 3.273 3.275 3.273m.832-5.978c.344.388.456.988.483 2.185h-2.99c.037-1.197.188-1.797.622-2.185.291-.259.631-.339 1.053-.339.365 0 .601.08.832.339M280.399 13.676c.802 0 1.322-.571 1.322-1.117V10.38c-.373.215-.914.215-1.392.301-.537.098-1.113.379-1.113 1.735 0 1.035.678 1.26 1.183 1.26m-1.883-4.982c0-.523.659-1.28 1.932-1.28 1.865 0 2.788.822 2.788 2.668v3.003c0 .353.169.499.415.499.288 0 .519-.238.581-.382l.153.152c-.094.262-.572.61-1.18.61-.69 0-1.297-.399-1.404-.953-.22.631-.824.953-1.693.953-1.441 0-2.367-.502-2.367-1.548 0-1.544 1.649-1.903 2.283-1.954.894-.075 1.697-.134 1.697-.45v-.861c0-1.054-.46-1.504-1.273-1.504-.407 0-.66.186-.66.622 0 .248.129.324.129.566 0 .271-.215.529-.725.529-.485 0-.676-.336-.676-.67M296.065 7.979c-.271-.252-.638-.332-1.03-.332-.542 0-1.04.358-1.385.762v4.401c.208.524.811.925 1.385.925.392 0 .759-.078 1.03-.333.447-.423.748-1.16.748-2.673 0-1.514-.301-2.328-.748-2.75m2.287 2.75c0 1.635-1.389 3.235-3.317 3.235-.59 0-1.04-.368-1.385-.724v4.877c0 .034.036.051.106.051h.891v.233h-3.503v-.233h.89c.071 0 .104-.017.104-.051V7.83c0-.035-.033-.055-.104-.055h-.89v-.233h2.463l.043.045v.561c.345-.359.795-.734 1.385-.734 1.928 0 3.317 1.678 3.317 3.315M317.476 7.59c.166 0 .258-.068.276-.132h.253v1.56h-.253c0-.907-.813-1.371-1.583-1.371-.797 0-1.182.358-1.182.923 0 .727.522 1.097 1.707 1.429 1.241.349 2.058.955 2.058 1.901 0 1.197-.967 2.064-2.514 2.064-.919 0-1.317-.428-1.793-.428a.524.524 0 0 0-.501.321h-.256l.088-2.075h.256c-.043 1.088.975 1.953 2.206 1.953.93 0 1.457-.426 1.457-1.219 0-.791-.623-1.106-1.76-1.453-1.112-.336-1.886-.788-1.886-1.766 0-1.159 1.123-1.883 2.12-1.883.65 0 .711.176 1.307.176M312.855 5.403c0-.422.358-.766.8-.766.479 0 .834.348.834.858 0 .753-.68 1.637-1.613 2.198l-.149-.168c.674-.39 1.159-.871 1.446-1.554-.124.137-.296.2-.518.2-.442 0-.8-.342-.8-.768M310.832 9.251c-.456 0-.765-.212-.765-.569 0-.323.195-.312.195-.549 0-.24-.156-.35-.404-.35-.254 0-.71.085-1.053 1.133v4.633c0 .04.029.055.101.055h.893v.233h-3.506v-.233h.895c.07 0 .104-.015.104-.055V7.83c0-.035-.034-.055-.104-.055h-.895v-.233h2.466l.046.045v.977c.265-.814.83-1.15 1.503-1.15.805 0 1.34.427 1.34 1.088 0 .417-.328.749-.816.749"></path>
  </g>
</svg>